<svg width="200" height="60" viewBox="0 0 200 60" fill="none" xmlns="http://www.w3.org/2000/svg">
  <!-- Улучшенная лапка с градиентом -->
  <defs>
    <linearGradient id="pawGradient" x1="0%" y1="0%" x2="0%" y2="100%">
      <stop offset="0%" style="stop-color:#10b981;stop-opacity:1" />
      <stop offset="100%" style="stop-color:#059669;stop-opacity:1" />
    </linearGradient>
  </defs>

  <g transform="translate(5, 8)">
    <!-- Главная подушечка -->
    <ellipse cx="22" cy="30" rx="13" ry="15" fill="url(#pawGradient)"/>

    <!-- Пальчики -->
    <ellipse cx="11" cy="13" rx="6.5" ry="8.5" fill="#10b981"/>
    <ellipse cx="22" cy="9" rx="6.5" ry="8.5" fill="#10b981"/>
    <ellipse cx="33" cy="13" rx="6.5" ry="8.5" fill="#10b981"/>
    <ellipse cx="39" cy="21" rx="5.5" ry="7.5" fill="#10b981"/>

    <!-- Блики для объема -->
    <ellipse cx="19" cy="27" rx="5" ry="6" fill="white" opacity="0.2"/>
    <ellipse cx="20" cy="11" rx="2" ry="3" fill="white" opacity="0.3"/>
  </g>

  <!-- Текст "DomZverei" с улучшенной типографикой -->
  <text x="60" y="40" font-family="system-ui, -apple-system, 'Segoe UI', sans-serif" font-size="26" font-weight="700" fill="#059669" letter-spacing="-0.5">Dom</text>
  <text x="112" y="40" font-family="system-ui, -apple-system, 'Segoe UI', sans-serif" font-size="26" font-weight="700" fill="#10b981" letter-spacing="-0.5">Zverei</text>

  <!-- Акцент - маленькое сердечко вместо домика -->
  <g transform="translate(88, 15)">
    <path d="M 5,3 C 5,1.5 6,0.5 7,0.5 C 8,0.5 9,1.5 9,3 C 9,1.5 10,0.5 11,0.5 C 12,0.5 13,1.5 13,3 C 13,5 10,7.5 9,8.5 C 8,7.5 5,5 5,3 Z" fill="#ef4444" opacity="0.8"/>
  </g>
</svg>
